<svg width="13" height="28" viewBox="0 0 13 28" fill="none" xmlns="http://www.w3.org/2000/svg">
<path d="M12.9719 9.77123L12.4381 12.4312C12.2637 13.3071 11.4247 13.9931 10.5282 13.9931H8.72111V26.2501C8.72111 27.2161 7.98765 28.0001 7.01958 28.0001H4.38662C3.41855 28.0001 2.63101 27.2144 2.63101 26.2492V13.9931H1.75365C0.785582 13.9931 -0.00195312 13.2082 -0.00195312 12.2422V9.61635C-0.00195312 8.65123 0.785582 7.86548 1.75365 7.86548H2.63101V5.25273C2.63101 2.3766 4.96484 0.0359766 7.84375 0.0114766C7.86206 0.0106016 7.87776 0.000976562 7.89695 0.000976562H11.4081C11.8922 0.000976562 12.2096 0.392102 12.2096 0.875102V5.2501C12.2096 5.73398 11.8922 6.1286 11.4081 6.1286H8.77431L8.77344 7.86548H11.4064C11.9 7.86548 12.3553 8.0746 12.6536 8.4386C12.9527 8.80173 13.0687 9.28823 12.9719 9.77123ZM7.92921 9.61635C7.91701 9.61723 7.90741 9.62335 7.8952 9.62335C7.4103 9.62248 7.01696 9.23048 7.01784 8.74748V8.74135L7.01958 5.25273C7.01958 4.76885 7.41204 4.37773 7.89695 4.37773H10.5299V1.75185H7.93096C7.91613 1.75185 7.90392 1.75973 7.88823 1.75973C5.95732 1.75973 4.38662 3.32685 4.38662 5.25273V8.75448C4.38662 9.23835 3.99328 9.63035 3.50838 9.63035C3.48483 9.63035 3.46477 9.6181 3.44122 9.61635H1.75365V12.2422H3.50838C3.99328 12.2422 4.38662 12.6342 4.38662 13.1181C4.38662 13.1636 4.36743 13.2021 4.36045 13.2459V26.2501L7.01958 26.2492V13.1269C7.01958 13.1234 7.01784 13.1207 7.01784 13.1181C7.01784 12.6342 7.4103 12.2422 7.8952 12.2422H10.5282C10.5918 12.2422 10.7052 12.1504 10.7165 12.0891L11.2128 9.61635H7.92921Z" fill="#3A7F8B"/>
</svg>
