<svg width="22" height="22" viewBox="0 0 22 22" fill="none" xmlns="http://www.w3.org/2000/svg">
<path fill-rule="evenodd" clip-rule="evenodd" d="M0.166016 4.50008C0.166016 2.10685 2.10611 0.166748 4.49935 0.166748H17.4993C19.8925 0.166748 21.8327 2.10685 21.8327 4.50008V17.5001C21.8327 19.8933 19.8925 21.8334 17.4993 21.8334H4.49935C2.10611 21.8334 0.166016 19.8933 0.166016 17.5001V4.50008ZM4.49935 2.33341C3.30273 2.33341 2.33268 3.30346 2.33268 4.50008V17.5001C2.33268 18.6967 3.30273 19.6667 4.49935 19.6667H17.4993C18.696 19.6667 19.666 18.6967 19.666 17.5001V4.50008C19.666 3.30346 18.696 2.33341 17.4993 2.33341H4.49935ZM10.9993 7.75008C9.20437 7.75008 7.74935 9.20511 7.74935 11.0001C7.74935 12.7951 9.20437 14.2501 10.9993 14.2501C12.7943 14.2501 14.2493 12.7951 14.2493 11.0001C14.2493 9.20511 12.7943 7.75008 10.9993 7.75008ZM5.58268 11.0001C5.58268 8.00854 8.00781 5.58341 10.9993 5.58341C13.9909 5.58341 16.416 8.00854 16.416 11.0001C16.416 13.9916 13.9909 16.4167 10.9993 16.4167C8.00781 16.4167 5.58268 13.9916 5.58268 11.0001ZM16.9577 6.66675C17.8551 6.66675 18.5827 5.93921 18.5827 5.04175C18.5827 4.14428 17.8551 3.41675 16.9577 3.41675C16.0602 3.41675 15.3327 4.14428 15.3327 5.04175C15.3327 5.93921 16.0602 6.66675 16.9577 6.66675Z" fill="#3A7F8B"/>
</svg>
