<svg width="85" height="80" viewBox="0 0 85 80" fill="none" xmlns="http://www.w3.org/2000/svg">
<g opacity="0.65" clip-path="url(#clip0_244_103)">
<path d="M52.8947 34.7257L52.8946 34.7257L47.4015 30.5869L47.0902 30.3523L46.7867 30.5971L39.0504 36.8371L38.5047 37.2772L39.0986 37.6498L44.5917 41.096C45.1059 41.4186 45.5242 41.8537 45.8123 42.3602C46.1002 42.8664 46.2499 43.4296 46.25 44C46.25 44 46.25 44.0001 46.25 44.0001V60C46.25 60.9181 45.8628 61.8053 45.1625 62.4643C44.4613 63.1243 43.504 63.5 42.5 63.5C41.496 63.5 40.5387 63.1243 39.8375 62.4643C39.1373 61.8053 38.75 60.9181 38.75 60V46.14V45.8635L38.5159 45.7165L27.6611 38.9015L27.661 38.9015C27.1786 38.5988 26.78 38.1969 26.4945 37.7293C26.209 37.2618 26.0436 36.7405 26.0092 36.2061C25.9749 35.6718 26.0724 35.1364 26.2952 34.6413C26.5182 34.146 26.8613 33.7032 27.3002 33.3491L42.1751 21.3492L42.1756 21.3488C42.8373 20.8137 43.6816 20.5101 44.5627 20.4963C45.4439 20.4825 46.299 20.7595 46.9798 21.2739L46.9804 21.2744L56.4393 28.3994L56.5729 28.5H56.7402H63.75C64.754 28.5 65.7113 28.8757 66.4125 29.5357C67.1128 30.1947 67.5 31.0819 67.5 32C67.5 32.9181 67.1128 33.8053 66.4125 34.4643C65.7113 35.1243 64.754 35.5 63.75 35.5H55.25H55.2491C54.3898 35.5015 53.5592 35.2266 52.8947 34.7257ZM56.4006 18.5656C55.4335 19.1738 54.2935 19.5 53.125 19.5C51.5574 19.5 50.0597 18.9136 48.9599 17.8785C47.8611 16.8444 47.25 15.4486 47.25 14C47.25 12.9192 47.5904 11.8599 48.2321 10.956C48.8741 10.0517 49.7899 9.34248 50.867 8.92258C51.9443 8.5026 53.1313 8.39231 54.2767 8.60675C55.4221 8.82118 56.4702 9.34979 57.2901 10.1215C58.1097 10.8928 58.6641 11.8718 58.8883 12.9328C59.1125 13.9936 58.9978 15.0934 58.5571 16.0947C58.1162 17.0964 57.3674 17.9575 56.4006 18.5656ZM58.8215 43.1198C61.5359 41.4127 64.7301 40.5 68 40.5C72.3855 40.5 76.5858 42.1399 79.6781 45.0504C82.7695 47.9599 84.5 51.8993 84.5 56C84.5 59.0586 83.5365 62.0513 81.7273 64.5997C79.9178 67.1485 77.3426 69.1394 74.324 70.3162C71.3053 71.4931 67.982 71.8014 64.7755 71.2011C61.5691 70.6008 58.6277 69.1198 56.3219 66.9496C54.0164 64.7797 52.4501 62.0189 51.8158 59.0181C51.1817 56.0175 51.5069 52.907 52.7517 50.0785C53.9967 47.2495 56.1074 44.8266 58.8215 43.1198ZM63.0115 63.075C64.4905 64.0052 66.2265 64.5 68 64.5C70.3775 64.5 72.6633 63.6114 74.3531 62.021C76.044 60.4296 77 58.2645 77 56C77 54.3119 76.468 52.6644 75.4752 51.266C74.4827 49.868 73.0754 48.7828 71.4344 48.1431C69.7937 47.5035 67.9898 47.3365 66.2497 47.6623C64.5096 47.988 62.9073 48.7928 61.6469 49.979C60.3862 51.1656 59.5239 52.6812 59.1741 54.3359C58.8244 55.9909 59.0042 57.706 59.6894 59.2629C60.3744 60.8193 61.5322 62.1447 63.0115 63.075ZM7.82149 43.1198C10.5359 41.4127 13.7301 40.5 17 40.5C21.3855 40.5 25.5858 42.1399 28.6781 45.0504C31.7695 47.9599 33.5 51.8993 33.5 56C33.5 59.0586 32.5365 62.0513 30.7273 64.5997C28.9178 67.1485 26.3426 69.1394 23.324 70.3162C20.3053 71.4931 16.982 71.8014 13.7755 71.2011C10.5691 70.6008 7.62771 69.1198 5.32188 66.9496C3.01636 64.7797 1.45006 62.0189 0.815852 59.0181C0.181705 56.0175 0.506851 52.907 1.7517 50.0785C2.99673 47.2495 5.10736 44.8266 7.82149 43.1198ZM12.0115 63.075C13.4905 64.0052 15.2265 64.5 17 64.5C19.3775 64.5 21.6633 63.6114 23.3531 62.021C25.044 60.4296 26 58.2645 26 56C26 54.3119 25.468 52.6644 24.4752 51.266C23.4827 49.868 22.0754 48.7828 20.4344 48.1431C18.7937 47.5035 16.9898 47.3365 15.2497 47.6623C13.5096 47.988 11.9073 48.7928 10.6469 49.979C9.38619 51.1656 8.52386 52.6812 8.17414 54.3359C7.82436 55.9909 8.0042 57.706 8.68939 59.2629C9.37439 60.8193 10.5322 62.1447 12.0115 63.075Z" fill="#20363A" stroke="white"/>
</g>
<defs>
<clipPath id="clip0_244_103">
<rect width="85" height="80" fill="white"/>
</clipPath>
</defs>
</svg>
