<svg width="24" height="24" viewBox="0 0 24 24" fill="none" xmlns="http://www.w3.org/2000/svg">
<path d="M4.4107 16.75C4.1707 19.64 6.3507 22 9.2507 22H14.0407C17.3007 22 19.5407 19.37 19.0007 16.15C18.4307 12.77 15.1707 10 11.7407 10C8.0207 10 4.7207 13.04 4.4107 16.75ZM10.4707 7.5C11.1337 7.5 11.7696 7.23661 12.2385 6.76777C12.7073 6.29893 12.9707 5.66304 12.9707 5C12.9707 4.33696 12.7073 3.70107 12.2385 3.23223C11.7696 2.76339 11.1337 2.5 10.4707 2.5C9.80766 2.5 9.17178 2.76339 8.70294 3.23223C8.2341 3.70107 7.9707 4.33696 7.9707 5C7.9707 5.66304 8.2341 6.29893 8.70294 6.76777C9.17178 7.23661 9.80766 7.5 10.4707 7.5ZM17.3007 8.7C17.8311 8.7 18.3398 8.48929 18.7149 8.11421C19.09 7.73914 19.3007 7.23043 19.3007 6.7C19.3007 6.16957 19.09 5.66086 18.7149 5.28579C18.3398 4.91071 17.8311 4.7 17.3007 4.7C16.7703 4.7 16.2616 4.91071 15.8865 5.28579C15.5114 5.66086 15.3007 6.16957 15.3007 6.7C15.3007 7.23043 15.5114 7.73914 15.8865 8.11421C16.2616 8.48929 16.7703 8.7 17.3007 8.7ZM21.0007 12.7C21.1977 12.7 21.3927 12.6612 21.5747 12.5858C21.7567 12.5104 21.9221 12.3999 22.0614 12.2607C22.2007 12.1214 22.3111 11.956 22.3865 11.774C22.4619 11.592 22.5007 11.397 22.5007 11.2C22.5007 11.003 22.4619 10.808 22.3865 10.626C22.3111 10.444 22.2007 10.2786 22.0614 10.1393C21.9221 10.0001 21.7567 9.88956 21.5747 9.81418C21.3927 9.7388 21.1977 9.7 21.0007 9.7C20.6029 9.7 20.2213 9.85803 19.94 10.1393C19.6587 10.4206 19.5007 10.8022 19.5007 11.2C19.5007 11.5978 19.6587 11.9794 19.94 12.2607C20.2213 12.542 20.6029 12.7 21.0007 12.7ZM3.9707 10.7C4.50114 10.7 5.00984 10.4893 5.38492 10.1142C5.75999 9.73914 5.9707 9.23043 5.9707 8.7C5.9707 8.16957 5.75999 7.66086 5.38492 7.28579C5.00984 6.91071 4.50114 6.7 3.9707 6.7C3.44027 6.7 2.93156 6.91071 2.55649 7.28579C2.18142 7.66086 1.9707 8.16957 1.9707 8.7C1.9707 9.23043 2.18142 9.73914 2.55649 10.1142C2.93156 10.4893 3.44027 10.7 3.9707 10.7Z" stroke="black" stroke-width="1.5" stroke-linecap="round" stroke-linejoin="round"/>
</svg>
