<svg width="24" height="24" viewBox="0 0 24 24" fill="none" xmlns="http://www.w3.org/2000/svg">
<path d="M16.4088 3.99999C18.3488 3.99999 19.9088 5.56999 19.9088 7.49999C19.9088 9.38999 18.4088 10.93 16.5388 11C16.4524 10.99 16.3651 10.99 16.2788 11M18.3388 20C19.0588 19.85 19.7387 19.56 20.2987 19.13C21.8587 17.96 21.8587 16.03 20.2987 14.86C19.7487 14.44 19.0788 14.16 18.3688 14M9.15875 10.87C9.05875 10.86 8.93875 10.86 8.82875 10.87C7.68095 10.831 6.59339 10.3468 5.79638 9.51995C4.99937 8.69307 4.55549 7.58844 4.55875 6.43999C4.55875 3.98999 6.53875 1.99999 8.99875 1.99999C10.175 1.97877 11.3115 2.42568 12.1582 3.2424C13.0049 4.05912 13.4925 5.17875 13.5138 6.35499C13.535 7.53123 13.0881 8.66771 12.2713 9.51444C11.4546 10.3612 10.335 10.8488 9.15875 10.87ZM4.15875 14.56C1.73875 16.18 1.73875 18.82 4.15875 20.43C6.90875 22.27 11.4188 22.27 14.1688 20.43C16.5888 18.81 16.5888 16.17 14.1688 14.56C11.4288 12.73 6.91875 12.73 4.15875 14.56Z" stroke="black" stroke-width="1.5" stroke-linecap="round" stroke-linejoin="round"/>
</svg>
