<svg width="26" height="21" viewBox="0 0 26 21" fill="none" xmlns="http://www.w3.org/2000/svg">
<path d="M17.0633 1.61538C18.4053 1.61538 19.928 2.142 20.7812 3.01915C21.8421 2.81562 22.8433 2.44327 23.7431 1.92715C23.3958 2.97796 22.6545 3.85996 21.6917 4.41727C22.6341 4.30662 23.5364 4.06673 24.3725 3.70731C23.7464 4.6095 22.9561 5.40346 22.044 6.03912C22.0521 6.23135 22.057 6.42519 22.057 6.61904C22.057 12.5693 17.5276 19.3846 8.94099 19.3846C6.30601 19.3846 3.6841 18.6843 1.62042 17.4066C1.98493 17.4502 2.3568 17.4712 2.73276 17.4712C4.91986 17.4712 6.93288 16.7515 8.53234 15.5416C6.48745 15.5069 4.76294 14.2041 4.17121 12.4167C4.45482 12.4683 4.74905 12.4974 5.04981 12.4974C5.47318 12.4974 5.88755 12.4433 6.27822 12.3391C4.14261 11.928 2.53416 10.1075 2.53416 7.92588C2.53416 7.90488 2.53416 7.88631 2.53416 7.86692C3.1643 8.20454 3.88271 8.40808 4.64852 8.43231C3.39559 7.62219 2.57257 6.24669 2.57257 4.68381C2.57257 3.85835 2.80223 3.08377 3.20353 2.42146C5.50505 5.14258 8.94589 6.93646 12.8264 7.12546C12.7455 6.79592 12.7038 6.44862 12.7038 6.1005C12.7038 3.61281 14.4839 1.61538 17.0633 1.61538ZM24.3725 3.70731H24.3765H24.3725ZM17.0633 0C13.9216 0 11.4918 2.22358 11.1273 5.292C8.52089 4.76942 6.1499 3.39554 4.44664 1.38196C4.13689 1.01527 3.68083 0.806077 3.20353 0.806077C3.16103 0.806077 3.11853 0.807692 3.07603 0.810923C2.55296 0.852115 2.08219 1.14127 1.81166 1.58792C1.24691 2.52162 0.947776 3.59181 0.947776 4.68381C0.947776 5.41154 1.08018 6.1215 1.32864 6.78462C1.06302 7.077 0.910181 7.46146 0.910181 7.86692V7.92588C0.910181 9.50815 1.53869 10.9757 2.5832 12.0766C2.52353 12.3528 2.53661 12.6444 2.62815 12.9215C2.9894 14.0118 3.64487 14.9504 4.49487 15.666C3.92357 15.792 3.3343 15.8558 2.73276 15.8558C2.41483 15.8558 2.10671 15.838 1.81657 15.8025C1.75037 15.7952 1.68498 15.7912 1.6196 15.7912C0.938786 15.7912 0.320089 16.2168 0.0887925 16.8695C-0.164571 17.5835 0.114946 18.3774 0.762249 18.778C3.07685 20.2109 5.98154 21 8.94099 21C14.5305 21 18.0016 18.4501 19.9288 16.3113C22.2663 13.7178 23.6263 10.2722 23.6794 6.82904C24.437 6.20469 25.1056 5.48423 25.672 4.67815C25.8771 4.40838 25.9989 4.07158 25.9989 3.70731C25.9989 3.15727 25.7235 2.67185 25.3025 2.37946C25.4848 1.75754 25.2756 1.08392 24.7672 0.672808C24.4705 0.433731 24.1077 0.311769 23.7423 0.311769C23.4636 0.311769 23.1833 0.382846 22.9307 0.528231C22.3872 0.84 21.8061 1.08554 21.194 1.26162C20.0694 0.478154 18.5435 0 17.0633 0Z" fill="#3A7F8B"/>
</svg>
