<svg width="28" height="22" viewBox="0 0 28 22" fill="none" xmlns="http://www.w3.org/2000/svg">
<path d="M26.8809 18.5066C26.369 19.6573 25.0486 20.6994 23.8088 20.9295C23.6819 20.9531 20.6518 21.5 14.0079 21.5H13.9904C7.34737 21.5 4.31463 20.9531 4.18863 20.9304C2.94875 20.6994 1.6275 19.6572 1.11475 18.5057C1.06925 18.4034 0 15.9411 0 11C0 6.05888 1.06925 3.59575 1.11475 3.49338C1.6275 2.34188 2.94875 1.30063 4.18863 1.0705C4.31463 1.04688 7.34737 0.5 13.9904 0.5C20.6518 0.5 23.6819 1.04688 23.8079 1.06963C25.0486 1.30063 26.369 2.34188 26.8818 3.4925C26.9273 3.59575 27.9991 6.05888 27.9991 11C27.9991 15.9411 26.9273 18.4034 26.8809 18.5066ZM25.2805 4.20125C25.0075 3.58788 24.1518 2.91412 23.4885 2.79075C23.4605 2.7855 20.4619 2.25 14.0079 2.25C7.53725 2.25 4.536 2.7855 4.50713 2.79075C3.84388 2.91412 2.989 3.58788 2.71513 4.20475C2.70638 4.22313 1.75088 6.47538 1.75088 11C1.75088 15.5238 2.70638 17.776 2.71688 17.7987C2.989 18.4121 3.84388 19.0859 4.508 19.2092C4.536 19.2145 7.53725 19.75 13.9904 19.75H14.0079C20.4619 19.75 23.4605 19.2145 23.4894 19.2092C24.1526 19.0859 25.0075 18.4121 25.2814 17.7952C25.2901 17.776 26.2474 15.5238 26.2474 11C26.2474 6.47625 25.2901 4.22312 25.2805 4.20125ZM11.8475 16.1153C11.7058 16.2054 11.543 16.25 11.3811 16.25C11.2359 16.25 11.0906 16.2141 10.9585 16.1406C10.6794 15.9866 10.5061 15.6935 10.5061 15.375V6.625C10.5061 6.30737 10.6776 6.01512 10.955 5.86112C11.2324 5.70625 11.5728 5.71325 11.8414 5.88037L18.858 10.2169C19.1144 10.3752 19.2719 10.6553 19.2728 10.9571C19.2736 11.259 19.1196 11.5407 18.8641 11.7009L11.8475 16.1153ZM12.257 8.19475V13.7904L16.744 10.9676L12.257 8.19475Z" fill="#3A7F8B"/>
</svg>
