<svg width="10" height="12" viewBox="0 0 10 12" fill="none" xmlns="http://www.w3.org/2000/svg">
<circle cx="4.61538" cy="7.26138" r="4.11538" stroke="#D1D1D1"/>
<path d="M4.72 10.06C4.18 10.06 3.69667 9.94333 3.27 9.71C2.85 9.47667 2.52 9.15667 2.28 8.75C2.04 8.34333 1.92 7.87667 1.92 7.35C1.92 6.82333 2.04 6.35667 2.28 5.95C2.52 5.54333 2.85 5.22667 3.27 5C3.69667 4.76667 4.18 4.65 4.72 4.65C5.2 4.65 5.62667 4.74667 6 4.94C6.38 5.12667 6.67333 5.40667 6.88 5.78L6.15 6.25C5.97667 5.99 5.76333 5.8 5.51 5.68C5.26333 5.55333 4.99667 5.49 4.71 5.49C4.36333 5.49 4.05333 5.56667 3.78 5.72C3.50667 5.87333 3.29 6.09 3.13 6.37C2.97 6.64333 2.89 6.97 2.89 7.35C2.89 7.73 2.97 8.06 3.13 8.34C3.29 8.62 3.50667 8.83667 3.78 8.99C4.05333 9.14333 4.36333 9.22 4.71 9.22C4.99667 9.22 5.26333 9.16 5.51 9.04C5.76333 8.91333 5.97667 8.72 6.15 8.46L6.88 8.92C6.67333 9.28667 6.38 9.57 6 9.77C5.62667 9.96333 5.2 10.06 4.72 10.06Z" fill="#D1D1D1"/>
</svg>
